<svg width="93" height="93" viewBox="0 0 93 93" fill="none" xmlns="http://www.w3.org/2000/svg">
<g clip-path="url(#clip0_1_1561)">
<path fill-rule="evenodd" clip-rule="evenodd" d="M68.641 49.9513H62.8223C62.5667 49.9513 62.3216 49.8524 62.1408 49.6763C61.9601 49.5003 61.8585 49.2615 61.8585 49.0126V44.9856C61.8585 44.7366 61.9601 44.4979 62.1408 44.3218C62.3216 44.1458 62.5667 44.0469 62.8223 44.0469H68.6424C68.8978 44.0472 69.1426 44.1463 69.323 44.3223C69.5034 44.4983 69.6048 44.7369 69.6048 44.9856V49.0126C69.6048 49.2615 69.5032 49.5003 69.3225 49.6763C69.1417 49.8524 68.8966 49.9513 68.641 49.9513ZM67.6771 45.9243H63.7862V48.0697H67.6771V45.9243Z" fill="#099EBF"/>
<path fill-rule="evenodd" clip-rule="evenodd" d="M77.4865 38.5482H79.1504C80.171 38.5526 81.1484 38.9497 81.8695 39.6531C82.5906 40.3565 82.997 41.309 83 42.303V51.7012C82.9959 52.6943 82.589 53.6456 81.8679 54.3479C81.1469 55.0501 80.1701 55.4464 79.1504 55.4504H77.4865V66.097C77.4824 67.6611 76.8427 69.16 75.7072 70.2661C74.5718 71.3722 73.0329 71.9956 71.4269 72H16.061C14.455 71.996 12.916 71.3729 11.7803 70.2671C10.6446 69.1612 10.0045 67.6625 10 66.0984V27.903C10.0041 26.3389 10.6438 24.84 11.7793 23.7339C12.9147 22.6278 14.4536 22.0044 16.0596 22H71.4255C73.0315 22.004 74.5705 22.6271 75.7062 23.7329C76.8419 24.8388 77.482 26.3375 77.4865 27.9016V38.5482ZM72.5933 67.2338C72.903 66.9317 73.0772 66.5225 73.078 66.0956V55.4504H61.7202C60.2604 55.4471 58.8613 54.881 57.8289 53.8757C56.7965 52.8705 56.2148 51.508 56.211 50.0862V43.9152C56.2144 42.4933 56.7957 41.1305 57.8278 40.1248C58.8599 39.119 60.2588 38.5522 61.7188 38.5482H73.078V27.903C73.0769 27.4761 72.9022 27.0671 72.5923 26.7652C72.2824 26.4634 71.8624 26.2933 71.4241 26.2922H16.061C15.6227 26.2941 15.2029 26.4645 14.8931 26.7665C14.5833 27.0685 14.4086 27.4775 14.4071 27.9044V39.0939H24.1523V32.3869C24.1531 31.8177 24.3855 31.2721 24.7988 30.8697C25.212 30.4672 25.7722 30.2408 26.3566 30.2401H31.7205C32.2226 29.1841 33.0798 28.3268 34.1503 27.8101C35.2209 27.2933 36.4405 27.1481 37.6073 27.3984C38.7741 27.6488 39.8182 28.2797 40.5666 29.1867C41.3151 30.0937 41.7231 31.2225 41.7231 32.3862C41.7231 33.5498 41.3151 34.6786 40.5666 35.5856C39.8182 36.4927 38.7741 37.1236 37.6073 37.3739C36.4405 37.6243 35.2209 37.479 34.1503 36.9623C33.0798 36.4455 32.2226 35.5882 31.7205 34.5323H28.5594V41.2393C28.5586 41.8081 28.3263 42.3534 27.9134 42.7555C27.5004 43.1577 26.9406 43.384 26.3566 43.3847H14.4071V44.8539H39.4047C39.9068 43.7983 40.7638 42.9414 41.8341 42.4249C42.9043 41.9084 44.1235 41.7633 45.29 42.0137C46.4564 42.264 47.5001 42.8948 48.2483 43.8015C48.9965 44.7083 49.4043 45.8367 49.4043 47C49.4043 48.1633 48.9965 49.2917 48.2483 50.1985C47.5001 51.1052 46.4564 51.736 45.29 51.9863C44.1235 52.2367 42.9043 52.0916 41.8341 51.5751C40.7638 51.0586 39.9068 50.2016 39.4047 49.1461H14.4071V50.618H26.3551C26.9391 50.6188 27.499 50.8451 27.9119 51.2472C28.3249 51.6494 28.5572 52.1947 28.558 52.7635V59.4705H31.7205C32.2227 58.4147 33.08 57.5575 34.1505 57.0409C35.221 56.5243 36.4406 56.3792 37.6073 56.6296C38.7741 56.8801 39.818 57.511 40.5664 58.418C41.3148 59.325 41.7228 60.4537 41.7228 61.6173C41.7228 62.7809 41.3148 63.9096 40.5664 64.8166C39.818 65.7236 38.7741 66.3545 37.6073 66.605C36.4406 66.8554 35.221 66.7103 34.1505 66.1937C33.08 65.677 32.2227 64.8199 31.7205 63.7641H26.3566C25.7722 63.7634 25.212 63.5369 24.7988 63.1345C24.3855 62.7321 24.1531 62.1864 24.1523 61.6173V54.9103H14.4071V66.097C14.409 66.5239 14.584 66.9327 14.8941 67.2345C15.2042 67.5362 15.6241 67.7063 16.0624 67.7078H71.4255C71.8638 67.7063 72.2837 67.5359 72.5933 67.2338ZM34.3661 60.2407C34.0884 60.6472 33.9407 61.1249 33.9419 61.6131C33.9434 62.2666 34.211 62.8928 34.686 63.3544C35.1609 63.8159 35.8045 64.0751 36.4755 64.0751C36.9768 64.0751 37.4669 63.9303 37.8837 63.6589C38.3005 63.3875 38.6252 63.0018 38.8168 62.5506C39.0084 62.0994 39.0582 61.6029 38.96 61.1241C38.8618 60.6453 38.6199 60.2056 38.265 59.8608C37.9101 59.5159 37.4581 59.2813 36.9663 59.1867C36.4744 59.0922 35.9648 59.1418 35.502 59.3294C35.0391 59.517 34.6438 59.8342 34.3661 60.2407ZM42.0543 45.625C41.776 46.0306 41.6275 46.5074 41.6275 46.9951C41.6275 47.6492 41.8943 48.2765 42.3692 48.739C42.8441 49.2015 43.4881 49.4613 44.1597 49.4613C44.6605 49.4613 45.1501 49.3167 45.5665 49.0457C45.9829 48.7747 46.3075 48.3895 46.4991 47.9389C46.6908 47.4883 46.7409 46.9924 46.6432 46.514C46.5455 46.0356 46.3044 45.5962 45.9502 45.2513C45.5961 44.9064 45.1449 44.6715 44.6537 44.5763C44.1625 44.4812 43.6534 44.53 43.1907 44.7167C42.728 44.9033 42.3325 45.2194 42.0543 45.625ZM34.3682 31.0156C34.0899 31.4216 33.9416 31.8988 33.9419 32.3869C33.9423 33.0411 34.2094 33.6684 34.6845 34.1308C35.1596 34.5933 35.8038 34.8531 36.4755 34.8531C36.9767 34.8531 37.4666 34.7083 37.8832 34.4371C38.2999 34.1659 38.6247 33.7804 38.8164 33.3295C39.0081 32.8785 39.0582 32.3823 38.9603 31.9036C38.8624 31.4249 38.621 30.9852 38.2665 30.6401C37.912 30.2951 37.4605 30.0602 36.9689 29.9651C36.4773 29.8701 35.9679 29.9192 35.5049 30.1061C35.042 30.2931 34.6464 30.6096 34.3682 31.0156ZM61.7216 51.161H78.5929V42.8418H61.7202C61.4279 42.8425 61.1478 42.956 60.9412 43.1575C60.7347 43.3589 60.6185 43.6319 60.6181 43.9166V50.0876C60.6188 50.3723 60.7354 50.6451 60.9422 50.8463C61.1491 51.0475 61.4293 51.1606 61.7216 51.161Z" fill="#099EBF"/>
</g>
<defs>
<clipPath id="clip0_1_1561">
<rect width="73" height="50" fill="white" transform="translate(10 22)"/>
</clipPath>
</defs>
</svg>
