<svg width="63" height="54" viewBox="0 0 63 54" fill="none" xmlns="http://www.w3.org/2000/svg">
<g clip-path="url(#clip0_1_1645)">
<path d="M47.2523 54H15.7503L15.713 53.9363L0 27L15.7503 0H47.2523L47.2896 0.0637153L62.9974 27L62.9614 27.0637L47.2523 54ZM15.8997 53.7451H47.1016L62.7026 27L47.1016 0.254861H15.8984L0.297419 27L15.8997 53.7451Z" fill="url(#paint0_linear_1_1645)"/>
<path d="M17.9108 53.3934L1.60812 28.5444L15.1928 2.15356L45.0892 0.604004L61.3919 25.453L61.3584 25.5192L47.8033 51.8464L17.9108 53.3934ZM1.90554 28.5355L18.046 53.1385L47.6411 51.6094L61.0958 25.4746L44.954 0.865237L15.3602 2.40078L1.90554 28.5355Z" fill="#099EBF"/>
<path d="M19.9309 52.7182L19.8871 52.6583L3.21881 29.9463L14.7821 4.22444L14.8555 4.21679L43.0691 1.28589L43.1128 1.34578L59.7876 24.0577L59.758 24.1253L48.2192 49.7758L48.1458 49.7834L19.9309 52.7182ZM3.5085 29.9081L20.0519 52.4493L48.0441 49.5375L59.4928 24.0845L42.948 1.55094L14.9559 4.46019L3.5085 29.9081Z" fill="#099EBF"/>
<path d="M21.8146 51.9751L4.80377 31.1848L14.4911 6.2084L41.1867 2.02612L58.1962 22.8101L48.5102 47.7865L48.4368 47.7979L21.8146 51.9751ZM5.09862 31.1389L21.9202 51.6999L48.3235 47.5609L57.9027 22.861L41.0799 2.3001L14.6778 6.43904L5.09862 31.1389Z" fill="#099EBF"/>
<path d="M23.5617 51.1773L23.5128 51.1225L6.37712 32.2857L14.3134 8.10833L39.437 2.82251L39.4872 2.8773L56.6242 21.7141L56.601 21.7842L48.6866 45.8915L23.5617 51.1773ZM6.6681 32.2246L23.6557 50.897L48.4883 45.6723L56.3332 21.7753L39.3455 3.10286L14.513 8.32751L6.6681 32.2246Z" fill="#099EBF"/>
<path d="M25.1828 50.3352L7.92989 33.2595L14.2413 9.91801L37.8173 3.66626L55.0701 20.742L48.76 44.0822L25.1828 50.3352ZM8.21057 33.1766L25.26 50.0497L48.5488 43.8732L54.7894 20.8235L37.7413 3.95043L14.4512 10.1257L8.21057 33.1766Z" fill="url(#paint1_linear_1_1645)"/>
<path d="M26.6776 49.4558L26.6222 49.4061L9.44016 34.094L14.2632 11.6382L14.334 11.6165L36.3224 4.54541L53.5611 19.9059L48.7381 42.3604L26.6776 49.4558ZM9.72341 34.0035L26.7394 49.1678L48.5166 42.1591L53.2805 19.9862L36.2632 4.82193L14.486 11.8306L9.72341 34.0035Z" fill="url(#paint2_linear_1_1645)"/>
<path d="M28.0526 48.5509L10.9285 34.8216L14.3765 13.2743L34.9486 5.45264L35.0066 5.49851L52.0792 19.182L52.0676 19.2546L48.6312 40.7293L28.0526 48.5509ZM11.2015 34.7133L28.099 48.2566L48.3994 40.5445L51.8011 19.2865L34.9023 5.74318L14.6006 13.4553L11.2015 34.7133Z" fill="url(#paint3_linear_1_1645)"/>
<path d="M29.3106 47.6195L29.25 47.5761L12.3603 35.4333L12.368 35.3594L14.5568 14.8137L33.6894 6.38037L50.6372 18.5666L50.6294 18.6405L48.4406 39.1861L48.3737 39.2167L29.3106 47.6195ZM12.6345 35.3135L29.3415 47.3264L48.2076 39.0141L50.3655 18.6863L33.6585 6.67346L14.7937 14.9858L12.6345 35.3135Z" fill="url(#paint4_linear_1_1645)"/>
<path d="M30.459 46.6766L13.7624 35.9457L14.8066 16.2691L14.8722 16.2347L32.5422 7.32349L49.2389 18.0544L48.1973 37.731L48.1303 37.7654L30.459 46.6766ZM14.034 35.8081L30.4809 46.3848L47.9475 37.5717L48.9775 18.1882L32.5268 7.61785L15.0538 16.4284L14.034 35.8081Z" fill="url(#paint5_linear_1_1645)"/>
<path d="M31.5006 45.726L31.4363 45.6891L15.1156 36.3624V17.6378L15.1799 17.6008L31.5006 8.27417L47.8857 17.6378V36.3624L47.8213 36.3994L31.5006 45.726ZM15.3731 36.2159L31.5006 45.4317L47.6282 36.2159V17.7843L31.5006 8.56853L15.3731 17.7843V36.2159Z" fill="url(#paint6_linear_1_1645)"/>
<path d="M32.4457 44.7728L32.3787 44.7384L16.4198 36.6924L15.4787 18.9209L30.5595 9.22729L46.5814 17.3077L47.5226 35.0791L32.4457 44.7728ZM16.6735 36.5331L32.4264 44.4733L47.2523 34.9466L46.3265 17.467L30.5749 9.52166L15.7439 19.0535L16.6735 36.5331Z" fill="url(#paint7_linear_1_1645)"/>
<path d="M33.2864 43.8221L33.2195 43.7915L17.6739 36.9421L15.8881 20.1212L29.7136 10.1816L45.3261 17.0629L45.3338 17.1368L47.1132 33.885L47.0527 33.9283L33.2864 43.8221ZM17.9147 36.7688L33.2556 43.5226L46.8415 33.7538L45.0854 17.2311L29.7419 10.4709L16.1598 20.2397L17.9147 36.7688Z" fill="url(#paint8_linear_1_1645)"/>
<path d="M34.0409 42.8779L18.8777 37.1167L16.3362 21.2389L16.3941 21.193L28.9591 11.126L44.1236 16.8833L44.1352 16.9559L46.6639 32.7573L46.6059 32.8032L34.0409 42.8779ZM19.1056 36.932L33.9907 42.5873L46.3832 32.6554L43.8918 17.0681L29.0054 11.4127L16.6091 21.3446L19.1056 36.932Z" fill="url(#paint9_linear_1_1645)"/>
<path d="M34.7105 41.9463L34.6345 41.9247L20.0275 37.2238L16.8177 22.2787L28.2908 12.0549L28.3617 12.0766L42.9738 16.7762L46.1823 31.7213L34.7105 41.9463ZM20.2489 37.0275L34.6487 41.6583L45.9004 31.6308L42.7523 16.9763L28.3526 12.3417L17.1009 22.3692L20.2489 37.0275Z" fill="url(#paint10_linear_1_1645)"/>
<path d="M35.2976 41.0326L21.1245 37.2696L17.3263 23.2408L27.7024 12.9724L41.8755 16.7303L45.6737 30.7592L35.2976 41.0326ZM21.3343 37.0606L35.2216 40.7434L45.3866 30.6763L41.6657 16.933L27.7797 13.2528L17.6134 23.3198L21.3343 37.0606Z" fill="url(#paint11_linear_1_1645)"/>
<path d="M35.81 40.1291L22.1622 37.2581L17.8529 24.1327L27.1849 13.8733L40.8326 16.7443L40.8558 16.8144L45.1433 29.8722L45.0931 29.927L35.81 40.1291ZM22.3669 37.0402L35.7186 39.8437L44.8523 29.8034L40.6344 16.9597L27.2827 14.1562L18.1541 24.1913L22.3669 37.0402Z" fill="url(#paint12_linear_1_1645)"/>
<path d="M36.2516 39.2487L36.1782 39.2372L23.1575 37.1983L18.4116 24.9471L26.7548 14.7527L39.849 16.8056L44.5948 29.0542L36.2516 39.2487ZM23.3442 36.9677L36.1448 38.9734L44.3012 29.0058L39.6558 17.0273L26.8552 15.0216L18.7 24.9892L23.3442 36.9677Z" fill="url(#paint13_linear_1_1645)"/>
<path d="M36.6263 38.3936L24.0935 37.0913L24.0626 37.0238L18.9678 25.6965L26.375 15.6052L38.9078 16.9101L38.9374 16.9764L44.0334 28.3037L43.9897 28.3636L36.6263 38.3936ZM24.266 36.853L36.4975 38.1273L43.7296 28.2744L38.725 17.1484L26.4934 15.8741L19.2601 25.727L24.266 36.853Z" fill="url(#paint14_linear_1_1645)"/>
<path d="M36.9392 37.5639L24.978 36.9433L19.5369 26.3781L26.0621 16.4385L38.0245 17.0591L43.4631 27.6231L36.9392 37.5639ZM25.1377 36.6999L36.804 37.3052L43.1669 27.609L37.8623 17.3076L26.1973 16.6933L19.8344 26.3895L25.1377 36.6999Z" fill="url(#paint15_linear_1_1645)"/>
<path d="M37.1941 36.7611H25.8059L25.7699 36.6974L20.1125 27L25.8059 17.2388H37.1941L37.2314 17.3025L42.8875 27L42.8515 27.0637L37.1941 36.7611ZM25.9553 36.5063H37.046L42.5914 27L37.046 17.4936H25.9553L20.4099 27L25.9553 36.5063Z" fill="url(#paint16_linear_1_1645)"/>
<path d="M26.5849 36.5471L20.6893 27.5607L25.6038 18.0136L36.419 17.4529L42.3159 26.4393L42.2811 26.5043L37.3962 35.9864L26.5849 36.5471ZM20.9867 27.5454L26.72 36.2846L37.234 35.7392L42.0146 26.4546L36.2799 17.7128L25.766 18.2582L20.9867 27.5454Z" fill="url(#paint17_linear_1_1645)"/>
<path d="M27.3136 36.3062L21.2622 28.0653L25.448 18.7628L35.6838 17.6975L41.7352 25.9384L41.7043 26.006L37.5482 35.2447L37.4748 35.2524L27.3136 36.3062ZM21.5609 28.0347L27.4346 36.0386L37.3756 35.0039L41.4403 25.9678L35.5654 17.9677L25.6218 18.9973L21.5609 28.0347Z" fill="url(#paint18_linear_1_1645)"/>
<path d="M27.9934 36.0412L21.8365 28.5151L25.3424 19.4675L35.0066 17.9524L41.1648 25.4861L37.6576 34.5273L37.5842 34.5388L27.9934 36.0412ZM22.13 28.4692L28.1003 35.7659L37.467 34.2979L40.8674 25.5307L34.8958 18.234L25.5252 19.702L22.13 28.4692Z" fill="url(#paint19_linear_1_1645)"/>
<path d="M28.6256 35.7571L28.5754 35.7023L22.403 28.9141L25.278 20.1571L34.377 18.2456L40.6022 25.0886L37.7245 33.8431L28.6256 35.7571ZM22.6914 28.8529L28.717 35.4793L37.5263 33.6265L40.3086 25.1498L34.283 18.5234L25.4737 20.3762L22.6914 28.8529Z" fill="url(#paint20_linear_1_1645)"/>
<path d="M29.2114 35.4563L22.9566 29.2657L25.2458 20.8094L33.7899 18.5437L40.0421 24.7343L37.7529 33.1906L29.2114 35.4563ZM23.2437 29.1893L29.2874 35.1708L37.5443 32.9816L39.7576 24.8095L33.7062 18.8266L25.4493 21.0159L23.2437 29.1893Z" fill="url(#paint21_linear_1_1645)"/>
<path d="M29.7522 35.1427L29.6968 35.093L23.5012 29.5727L25.2497 21.4299L33.2491 18.8596L39.4988 24.4296L37.7503 32.5724L29.7522 35.1427ZM23.7845 29.481L29.814 34.8547L37.5301 32.3673L39.2168 24.5137L33.1873 19.14L25.4712 21.6223L23.7845 29.481Z" fill="url(#paint22_linear_1_1645)"/>
<path d="M30.2492 34.8179L24.0343 29.8366L25.2857 22.0187L32.7534 19.1821L38.9696 24.1634L38.958 24.236L37.7155 31.9851L30.2492 34.8179ZM24.3124 29.7308L30.2955 34.5337L37.4838 31.8029L38.6889 24.2755L32.7032 19.4727L25.5149 22.2035L24.3124 29.7308Z" fill="url(#paint23_linear_1_1645)"/>
<path d="M30.705 34.4853L24.5531 30.0609L25.3476 22.5757L32.3002 19.5173L38.4533 23.9417L37.6576 31.427L37.5906 31.4563L30.705 34.4853ZM24.8248 29.9463L30.7371 34.1986L37.4117 31.2562L38.1765 24.0628L32.2641 19.8117L25.5883 22.7541L24.8248 29.9463Z" fill="url(#paint24_linear_1_1645)"/>
<path d="M31.1221 34.1514L25.0566 30.2533L25.4351 23.1057L31.8727 19.8562L37.9383 23.7543L37.5597 30.9019L31.1221 34.1514ZM25.3218 30.1195L31.1376 33.8583L37.3177 30.7413L37.6808 23.8881L31.865 20.1493L25.6849 23.265L25.3218 30.1195Z" fill="url(#paint25_linear_1_1645)"/>
<path d="M31.5006 33.8073L25.5433 30.4036V23.5963L31.5006 20.1926L37.4568 23.5963V30.4036L31.5006 33.8073ZM25.8008 30.2571L31.5006 33.5142L37.1992 30.2584V23.7428L31.5006 20.487L25.8008 23.7428V30.2571Z" fill="url(#paint26_linear_1_1645)"/>
<path d="M31.8431 33.4658L26.0145 30.526L25.672 24.0602L31.1582 20.5342L36.9868 23.474L37.3293 29.9462L31.8431 33.4658ZM26.2656 30.3655L31.8303 33.1689L37.0666 29.8035L36.7396 23.632L31.1762 20.8285L25.9398 24.194L26.2656 30.3655Z" fill="url(#paint27_linear_1_1645)"/>
<path d="M32.1508 33.1244L26.4664 30.6191L25.8162 24.4948L30.8504 20.8757L36.5336 23.381L36.5413 23.4537L37.1851 29.5053L32.1508 33.1244ZM26.7072 30.4483L32.1148 32.8325L36.907 29.3919L36.2877 23.5594L30.8801 21.1752L26.0866 24.6158L26.7072 30.4483Z" fill="url(#paint28_linear_1_1645)"/>
<path d="M32.4264 32.7853L26.9016 30.6865L25.9759 24.9012L30.5749 21.2146L36.0997 23.3198L37.0254 29.1051L32.4264 32.7853ZM27.1321 30.5005L32.38 32.4948L36.7473 28.993L35.8679 23.4994L30.6213 21.5051L26.2527 25.0057L27.1321 30.5005Z" fill="url(#paint29_linear_1_1645)"/>
<path d="M32.671 32.4502L27.3162 30.7286L26.1458 25.2784L30.3303 21.5498L35.6838 23.2714L36.8542 28.7216L32.671 32.4502ZM27.5376 30.5311L32.6092 32.1622L36.5722 28.6311L35.4636 23.4689L30.3921 21.8378L26.4291 25.3689L27.5376 30.5311Z" fill="url(#paint30_linear_1_1645)"/>
<path d="M32.886 32.1202L27.7127 30.7478L26.3274 25.6276L30.114 21.8799L35.2873 23.2523L36.6739 28.3725L32.886 32.1202ZM27.9239 30.5401L32.8165 31.836L36.3933 28.296L35.0838 23.4537L30.1977 22.1577L26.6209 25.6977L27.9239 30.5401Z" fill="url(#paint31_linear_1_1645)"/>
<path d="M33.0753 31.7966L28.0913 30.7478L26.5231 25.9513L29.9324 22.2036L34.9165 23.2524L36.4911 28.0489L33.0753 31.7966ZM28.2896 30.5223L32.9826 31.5099L36.1937 27.9813L34.7105 23.4652L30.0174 22.4776L26.8076 26.0061L28.2896 30.5223Z" fill="url(#paint32_linear_1_1645)"/>
<path d="M33.2375 31.4752L28.4544 30.7285L26.7123 26.2506L29.7625 22.522L34.5508 23.2725L36.289 27.7517L33.2375 31.4752ZM28.6372 30.4966L33.1307 31.2013L35.9954 27.7008L34.3641 23.4955L29.8706 22.7947L27.0072 26.2952L28.6372 30.4966Z" fill="url(#paint33_linear_1_1645)"/>
<path d="M33.3766 31.1708L28.7891 30.6942L26.9093 26.5221L29.6196 22.8267L34.2083 23.3032L36.0842 27.4741L33.3766 31.1708ZM28.9694 30.4559L33.2607 30.9019L35.7933 27.446L34.0384 23.5441L29.7419 23.0981L27.2054 26.554L28.9694 30.4559Z" fill="#099EBF"/>
<path d="M33.4937 30.8713L29.1161 30.6432L27.1166 26.7732L29.5075 23.1287L33.8916 23.3568L35.8847 27.2268L33.4937 30.8713ZM29.2719 30.3973L33.3585 30.6088L35.5872 27.2115L33.7332 23.6027L29.6466 23.3912L27.4179 26.7885L29.2719 30.3973Z" fill="#099EBF"/>
<path d="M33.589 30.5832H29.411L27.3226 27.0024L29.411 23.4216H33.589L35.6774 27.0024L33.589 30.5832ZM29.5603 30.3284H33.4409L35.3812 27.0024L33.4409 23.6765H29.5603L27.62 27.0024L29.5603 30.3284Z" fill="url(#paint34_linear_1_1645)"/>
<path d="M29.6955 30.5069L27.5299 27.2065L29.3324 23.6996L33.3032 23.4932L35.4688 26.7936L33.6663 30.3005L29.6955 30.5069ZM27.826 27.1937L29.8307 30.2521L33.504 30.0609L35.1778 26.8166L33.1744 23.7582L29.5011 23.9494L27.826 27.1937Z" fill="url(#paint35_linear_1_1645)"/>
<path d="M29.9608 30.4228L27.7359 27.3976L29.2809 23.9761L33.0392 23.5747L35.2641 26.6063L33.7255 30.0278L29.9608 30.4228ZM28.0295 27.3645L30.0792 30.1578L33.5478 29.7959L34.9641 26.6432L32.9144 23.85L29.4509 24.2119L28.0295 27.3645Z" fill="url(#paint36_linear_1_1645)"/>
<path d="M30.2093 30.3284L27.9393 27.5581L29.2269 24.2283L32.7856 23.6702L35.0594 26.4418L33.7718 29.7715L30.2093 30.3284ZM28.2355 27.5122L30.3161 30.0544L33.5813 29.5447L34.7658 26.4864L32.6852 23.9378L29.42 24.4475L28.2355 27.5122Z" fill="url(#paint37_linear_1_1645)"/>
<path d="M30.4397 30.2292L28.1454 27.7061L29.205 24.477L32.5603 23.771L34.8559 26.2941L33.795 29.5232L30.4397 30.2292ZM28.4363 27.6449L30.5324 29.9463L33.5967 29.3015L34.565 26.3527L32.4689 24.0488L29.4046 24.6936L28.4363 27.6449Z" fill="url(#paint38_linear_1_1645)"/>
<path d="M30.6547 30.122L28.3449 27.8372L29.1908 24.7139L32.3453 23.8779L34.6551 26.1628L33.8105 29.2861L30.6547 30.122ZM28.632 27.7607L30.732 29.8379L33.5993 29.0733L34.3718 26.2341L32.2732 24.157L29.4045 24.9216L28.632 27.7607Z" fill="url(#paint39_linear_1_1645)"/>
<path d="M30.853 30.0111L28.5419 27.9506L29.1857 24.9407L32.147 23.9888L34.4581 26.048L33.8143 29.0592L30.853 30.0111ZM28.8252 27.8601L30.9161 29.7231L33.5903 28.863L34.1761 26.1398L32.0852 24.2768L29.4097 25.1369L28.8252 27.8601Z" fill="url(#paint40_linear_1_1645)"/>
<path d="M31.0371 29.8952L28.735 28.05L29.1985 25.1548L31.9641 24.1047L34.2663 25.9487L33.8027 28.8452L31.0371 29.8952ZM29.0119 27.9455L31.0835 29.6021L33.571 28.6578L33.9907 26.0544L31.9204 24.3978L29.4316 25.3421L29.0119 27.9455Z" fill="url(#paint41_linear_1_1645)"/>
<path d="M31.2058 29.7766L28.923 28.1353L29.2179 25.3586L31.7929 24.2219L34.0783 25.8683L33.7834 28.645L31.2058 29.7766ZM29.1947 28.0155L31.2367 29.4848L33.5427 28.4654L33.8066 25.9817L31.7646 24.5125L29.4586 25.5319L29.1947 28.0155Z" fill="url(#paint42_linear_1_1645)"/>
<path d="M31.359 29.6569L29.1058 28.208L29.2462 25.5511L31.641 24.343L33.8954 25.7919L33.7551 28.4488L31.359 29.6569ZM29.3698 28.0742L31.3757 29.3625L33.5053 28.2895L33.6341 25.927L31.6294 24.6387L29.4998 25.7129L29.3698 28.0742Z" fill="url(#paint43_linear_1_1645)"/>
<path d="M31.5006 29.5347L29.2822 28.2681V25.7322L31.5006 24.4668L33.7178 25.7335V28.2693L31.5006 29.5347ZM29.5397 28.1202L31.5006 29.2403L33.4603 28.1202V25.88L31.5006 24.7599L29.5397 25.88V28.1202Z" fill="url(#paint44_linear_1_1645)"/>
<path d="M31.6281 29.4121L29.4535 28.315L29.3247 25.9027L31.3732 24.594L33.5465 25.6912L33.6753 28.1034L31.6281 29.4121ZM29.6968 28.1557L31.6062 29.1178L33.4088 27.9633L33.2967 25.8441L31.3873 24.882L29.5848 26.0365L29.6968 28.1557Z" fill="url(#paint45_linear_1_1645)"/>
<path d="M31.744 29.29L29.6131 28.3534L29.3711 26.0596L31.2522 24.7063L33.3766 25.6429L33.6199 27.9367L31.744 29.29ZM29.8591 28.1801L31.7118 28.9969L33.3534 27.8169L33.141 25.82L31.2869 25.0032L29.6453 26.1832L29.8591 28.1801Z" fill="url(#paint46_linear_1_1645)"/>
<path d="M31.847 29.1677L29.7779 28.3815L29.4303 26.2151L31.1582 24.8325L33.2182 25.6137L33.5645 27.78L31.847 29.1677ZM30.0084 28.1954L31.8019 28.8772L33.2942 27.6806L32.9929 25.8048L31.2019 25.1231L29.7097 26.3196L30.0084 28.1954Z" fill="url(#paint47_linear_1_1645)"/>
<path d="M31.9397 29.0465L29.9299 28.3991L29.4908 26.3539L31.0603 24.9521L33.0714 25.5995L33.5105 27.6384L31.9397 29.0465ZM30.15 28.2029L31.8779 28.7585L33.2272 27.5556L32.85 25.797L31.1234 25.2414L29.7728 26.4444L30.15 28.2029Z" fill="url(#paint48_linear_1_1645)"/>
<path d="M32.0221 28.9267L30.0753 28.417L29.5539 26.4902L30.9792 25.0796L32.9259 25.5957L33.4409 27.5224L32.0221 28.9267ZM30.2852 28.2029L31.9448 28.6426L33.1603 27.4396L32.7148 25.797L31.0552 25.3587L29.841 26.5616L30.2852 28.2029Z" fill="url(#paint49_linear_1_1645)"/>
<path d="M32.0942 28.8095L30.2144 28.4171L29.6208 26.6088L30.9084 25.1943L32.7895 25.5906L33.3804 27.3976L32.0942 28.8095ZM30.4127 28.1953L32.0028 28.5292L33.0894 27.3339L32.5873 25.8047L30.9985 25.4709L29.9105 26.6662L30.4127 28.1953Z" fill="url(#paint50_linear_1_1645)"/>
<path d="M32.1573 28.6935L30.347 28.417L29.6891 26.7221L30.8479 25.3127L32.6581 25.5956L33.3148 27.2905L32.1573 28.6935ZM30.5337 28.1838L32.0504 28.417L33.0173 27.2357L32.4676 25.8161L30.9496 25.5778L29.9839 26.7591L30.5337 28.1838Z" fill="url(#paint51_linear_1_1645)"/>
<path d="M32.2114 28.5813L30.4719 28.4004L29.7612 26.819L30.7912 25.4172L32.5307 25.5982L33.2427 27.1796L32.2114 28.5813ZM30.6432 28.1621L32.0865 28.3125L32.9401 27.1503L32.3504 25.8378L30.9058 25.6874L30.0522 26.8496L30.6432 28.1621Z" fill="url(#paint52_linear_1_1645)"/>
<path d="M32.2577 28.4717L30.5917 28.3851L29.8333 26.9132L30.7423 25.5281L32.4096 25.6147L33.1667 27.0866L32.2577 28.4717ZM30.7526 28.1379L32.1225 28.2092L32.8706 27.0713L32.2474 25.8607L30.8775 25.7906L30.1307 26.9285L30.7526 28.1379Z" fill="url(#paint53_linear_1_1645)"/>
<path d="M32.2963 28.3649H30.7037L29.9067 27.0001L30.7037 25.634H32.2963L33.0894 27.0001L32.2963 28.3649ZM30.853 28.11H32.1483L32.792 27.0001L32.1483 25.8889H30.853L30.2092 27.0001L30.853 28.11Z" fill="url(#paint54_linear_1_1645)"/>
<path d="M30.8092 28.3419L29.9814 27.0791L30.6715 25.7411L32.1908 25.6633L33.0186 26.9249L32.3285 28.2667L30.8092 28.3419ZM30.2788 27.0676L30.9444 28.0871L32.1663 28.0233L32.7225 26.944L32.0556 25.9246L30.8337 25.9883L30.2788 27.0676Z" fill="url(#paint55_linear_1_1645)"/>
<path d="M30.9097 28.3126L30.056 27.1504L30.6431 25.8366L32.0877 25.6875L32.9414 26.8497L32.3543 28.1622L30.9097 28.3126ZM30.3522 27.1198L31.0307 28.0437L32.1792 27.9252L32.6491 26.8803L31.9706 25.9564L30.8221 26.0749L30.3522 27.1198Z" fill="url(#paint56_linear_1_1645)"/>
<path d="M31.0037 28.2819L30.1281 27.2153L30.6251 25.9334L31.9951 25.718L32.868 26.7846L32.371 28.0666L31.0037 28.2819ZM30.4243 27.1682L31.1092 28.0067L32.1856 27.8385L32.5719 26.8318L31.8908 25.9958L30.8144 26.164L30.4243 27.1682Z" fill="url(#paint57_linear_1_1645)"/>
<path d="M31.0912 28.2476L30.2041 27.2702L30.6135 26.0227L31.9101 25.75L32.7972 26.7248L32.3865 27.9724L31.0912 28.2476ZM30.4951 27.2116L31.1826 27.9673L32.1882 27.7558L32.5062 26.7886L31.8174 26.0329L30.8131 26.2444L30.4951 27.2116Z" fill="url(#paint58_linear_1_1645)"/>
<path d="M31.1723 28.2105L30.2711 27.3248L30.5981 26.1143L31.8212 25.7893L32.7225 26.6813L32.3942 27.8919L31.1723 28.2105ZM30.5646 27.2484L31.2496 27.9263L32.1856 27.6715L32.4431 26.745L31.7582 26.0671L30.8221 26.3156L30.5646 27.2484Z" fill="url(#paint59_linear_1_1645)"/>
<path d="M31.2483 28.1724L30.347 27.3695L30.5981 26.1985L31.7491 25.8276L32.6504 26.6292L32.3929 27.8015L31.2483 28.1724ZM30.6316 27.2803L31.3101 27.8856L32.1792 27.6053L32.3684 26.7222L31.6899 26.1169L30.8221 26.396L30.6316 27.2803Z" fill="url(#paint60_linear_1_1645)"/>
<path d="M31.3191 28.1316L30.4178 27.4103L30.5981 26.2787L31.6783 25.8684L32.5796 26.5897L32.398 27.7212L31.3191 28.1316ZM30.6972 27.3046L31.3655 27.841L32.1689 27.5352L32.2976 26.6954L31.6294 26.1589L30.8273 26.4648L30.6972 27.3046Z" fill="url(#paint61_linear_1_1645)"/>
<path d="M31.3848 28.0895L30.4835 27.4459L30.5994 26.3564L31.6114 25.9104L32.5062 26.5476L32.3903 27.6371L31.3848 28.0895ZM30.7603 27.3249L31.4157 27.7951L32.1547 27.4702L32.2397 26.6724L31.5843 26.2022L30.8453 26.5272L30.7603 27.3249Z" fill="url(#paint62_linear_1_1645)"/>
<path d="M31.4453 28.0463L30.5569 27.4754L30.6122 26.4292L31.556 25.9539L32.4444 26.5247L32.389 27.571L31.4453 28.0463ZM30.8221 27.3429L31.4659 27.7532L32.1444 27.4104L32.1843 26.6573L31.5444 26.2508L30.8659 26.5936L30.8221 27.3429Z" fill="url(#paint63_linear_1_1645)"/>
<path d="M31.5007 28.0028L30.6226 27.502V26.4979L31.5007 25.9971L32.3775 26.4979V27.502L31.5007 28.0028ZM30.8801 27.3542L31.5007 27.7085L32.12 27.3542V26.6457L31.5007 26.2914L30.8801 26.6457V27.3542Z" fill="url(#paint64_linear_1_1645)"/>
</g>
<defs>
<linearGradient id="paint0_linear_1_1645" x1="14.4306" y1="53.1564" x2="48.0755" y2="0.527034" gradientUnits="userSpaceOnUse">
<stop stop-color="#12B5EA"/>
<stop offset="1" stop-color="#EF477C"/>
</linearGradient>
<linearGradient id="paint1_linear_1_1645" x1="23.9181" y1="49.785" x2="38.5217" y2="3.9923" gradientUnits="userSpaceOnUse">
<stop stop-color="#12B5EA"/>
<stop offset="1" stop-color="#EF477C"/>
</linearGradient>
<linearGradient id="paint2_linear_1_1645" x1="25.7076" y1="49.3889" x2="37.4397" y2="4.7094" gradientUnits="userSpaceOnUse">
<stop stop-color="#12B5EA"/>
<stop offset="1" stop-color="#EF477C"/>
</linearGradient>
<linearGradient id="paint3_linear_1_1645" x1="27.0312" y1="48.398" x2="35.9234" y2="5.61075" gradientUnits="userSpaceOnUse">
<stop stop-color="#12B5EA"/>
<stop offset="1" stop-color="#EF477C"/>
</linearGradient>
<linearGradient id="paint4_linear_1_1645" x1="28.159" y1="47.3129" x2="34.4424" y2="6.58382" gradientUnits="userSpaceOnUse">
<stop stop-color="#12B5EA"/>
<stop offset="1" stop-color="#EF477C"/>
</linearGradient>
<linearGradient id="paint5_linear_1_1645" x1="29.6561" y1="46.4385" x2="33.3802" y2="7.22839" gradientUnits="userSpaceOnUse">
<stop stop-color="#12B5EA"/>
<stop offset="1" stop-color="#EF477C"/>
</linearGradient>
<linearGradient id="paint6_linear_1_1645" x1="30.608" y1="45.7288" x2="32.4585" y2="8.28935" gradientUnits="userSpaceOnUse">
<stop stop-color="#12B5EA"/>
<stop offset="1" stop-color="#EF477C"/>
</linearGradient>
<linearGradient id="paint7_linear_1_1645" x1="31.594" y1="44.8192" x2="31.5076" y2="9.19515" gradientUnits="userSpaceOnUse">
<stop stop-color="#12B5EA"/>
<stop offset="1" stop-color="#EF477C"/>
</linearGradient>
<linearGradient id="paint8_linear_1_1645" x1="32.4206" y1="43.8549" x2="30.5894" y2="10.1398" gradientUnits="userSpaceOnUse">
<stop stop-color="#12B5EA"/>
<stop offset="1" stop-color="#EF477C"/>
</linearGradient>
<linearGradient id="paint9_linear_1_1645" x1="33.0846" y1="42.8557" x2="29.706" y2="11.1279" gradientUnits="userSpaceOnUse">
<stop stop-color="#12B5EA"/>
<stop offset="1" stop-color="#EF477C"/>
</linearGradient>
<linearGradient id="paint10_linear_1_1645" x1="34.1136" y1="41.8863" x2="29.039" y2="11.7368" gradientUnits="userSpaceOnUse">
<stop stop-color="#12B5EA"/>
<stop offset="1" stop-color="#EF477C"/>
</linearGradient>
<linearGradient id="paint11_linear_1_1645" x1="34.4241" y1="41.0898" x2="28.4231" y2="12.9049" gradientUnits="userSpaceOnUse">
<stop stop-color="#12B5EA"/>
<stop offset="1" stop-color="#EF477C"/>
</linearGradient>
<linearGradient id="paint12_linear_1_1645" x1="35.231" y1="40.0265" x2="27.7879" y2="13.5071" gradientUnits="userSpaceOnUse">
<stop stop-color="#12B5EA"/>
<stop offset="1" stop-color="#EF477C"/>
</linearGradient>
<linearGradient id="paint13_linear_1_1645" x1="35.7186" y1="39.4964" x2="27.5891" y2="14.4274" gradientUnits="userSpaceOnUse">
<stop stop-color="#12B5EA"/>
<stop offset="1" stop-color="#EF477C"/>
</linearGradient>
<linearGradient id="paint14_linear_1_1645" x1="36.1851" y1="38.6738" x2="27.2054" y2="15.211" gradientUnits="userSpaceOnUse">
<stop stop-color="#12B5EA"/>
<stop offset="1" stop-color="#EF477C"/>
</linearGradient>
<linearGradient id="paint15_linear_1_1645" x1="36.5338" y1="37.8514" x2="26.8468" y2="16.0129" gradientUnits="userSpaceOnUse">
<stop stop-color="#12B5EA"/>
<stop offset="1" stop-color="#EF477C"/>
</linearGradient>
<linearGradient id="paint16_linear_1_1645" x1="36.7697" y1="37.0393" x2="26.5185" y2="16.8342" gradientUnits="userSpaceOnUse">
<stop stop-color="#12B5EA"/>
<stop offset="1" stop-color="#EF477C"/>
</linearGradient>
<linearGradient id="paint17_linear_1_1645" x1="36.8992" y1="36.2476" x2="26.2254" y2="17.6738" gradientUnits="userSpaceOnUse">
<stop stop-color="#12B5EA"/>
<stop offset="1" stop-color="#EF477C"/>
</linearGradient>
<linearGradient id="paint18_linear_1_1645" x1="36.9253" y1="35.4874" x2="25.9694" y2="18.5326" gradientUnits="userSpaceOnUse">
<stop stop-color="#12B5EA"/>
<stop offset="1" stop-color="#EF477C"/>
</linearGradient>
<linearGradient id="paint19_linear_1_1645" x1="37.4104" y1="34.8261" x2="25.9401" y2="18.9569" gradientUnits="userSpaceOnUse">
<stop stop-color="#12B5EA"/>
<stop offset="1" stop-color="#EF477C"/>
</linearGradient>
<linearGradient id="paint20_linear_1_1645" x1="37.486" y1="34.0874" x2="25.7711" y2="19.6373" gradientUnits="userSpaceOnUse">
<stop stop-color="#12B5EA"/>
<stop offset="1" stop-color="#EF477C"/>
</linearGradient>
<linearGradient id="paint21_linear_1_1645" x1="37.5733" y1="33.4837" x2="25.7427" y2="20.2735" gradientUnits="userSpaceOnUse">
<stop stop-color="#12B5EA"/>
<stop offset="1" stop-color="#EF477C"/>
</linearGradient>
<linearGradient id="paint22_linear_1_1645" x1="37.5079" y1="32.5758" x2="25.4343" y2="20.9" gradientUnits="userSpaceOnUse">
<stop stop-color="#12B5EA"/>
<stop offset="1" stop-color="#EF477C"/>
</linearGradient>
<linearGradient id="paint23_linear_1_1645" x1="37.4306" y1="32.2777" x2="25.6584" y2="21.6208" gradientUnits="userSpaceOnUse">
<stop stop-color="#12B5EA"/>
<stop offset="1" stop-color="#EF477C"/>
</linearGradient>
<linearGradient id="paint24_linear_1_1645" x1="37.5351" y1="31.6985" x2="25.6951" y2="22.0599" gradientUnits="userSpaceOnUse">
<stop stop-color="#12B5EA"/>
<stop offset="1" stop-color="#EF477C"/>
</linearGradient>
<linearGradient id="paint25_linear_1_1645" x1="37.5773" y1="31.143" x2="25.7431" y2="22.5006" gradientUnits="userSpaceOnUse">
<stop stop-color="#12B5EA"/>
<stop offset="1" stop-color="#EF477C"/>
</linearGradient>
<linearGradient id="paint26_linear_1_1645" x1="37.0194" y1="30.7533" x2="25.7972" y2="23.4294" gradientUnits="userSpaceOnUse">
<stop stop-color="#12B5EA"/>
<stop offset="1" stop-color="#EF477C"/>
</linearGradient>
<linearGradient id="paint27_linear_1_1645" x1="36.9573" y1="30.2849" x2="25.8995" y2="23.8709" gradientUnits="userSpaceOnUse">
<stop stop-color="#12B5EA"/>
<stop offset="1" stop-color="#EF477C"/>
</linearGradient>
<linearGradient id="paint28_linear_1_1645" x1="36.849" y1="29.8507" x2="26.0201" y2="24.3096" gradientUnits="userSpaceOnUse">
<stop stop-color="#12B5EA"/>
<stop offset="1" stop-color="#EF477C"/>
</linearGradient>
<linearGradient id="paint29_linear_1_1645" x1="36.7937" y1="29.3259" x2="26.0702" y2="24.638" gradientUnits="userSpaceOnUse">
<stop stop-color="#12B5EA"/>
<stop offset="1" stop-color="#EF477C"/>
</linearGradient>
<linearGradient id="paint30_linear_1_1645" x1="36.5126" y1="29.1013" x2="26.3212" y2="25.1775" gradientUnits="userSpaceOnUse">
<stop stop-color="#12B5EA"/>
<stop offset="1" stop-color="#EF477C"/>
</linearGradient>
<linearGradient id="paint31_linear_1_1645" x1="36.6099" y1="28.7904" x2="26.5766" y2="25.3348" gradientUnits="userSpaceOnUse">
<stop stop-color="#12B5EA"/>
<stop offset="1" stop-color="#EF477C"/>
</linearGradient>
<linearGradient id="paint32_linear_1_1645" x1="36.5241" y1="28.2253" x2="26.5617" y2="25.5545" gradientUnits="userSpaceOnUse">
<stop stop-color="#12B5EA"/>
<stop offset="1" stop-color="#EF477C"/>
</linearGradient>
<linearGradient id="paint33_linear_1_1645" x1="36.244" y1="27.9814" x2="26.7682" y2="25.971" gradientUnits="userSpaceOnUse">
<stop stop-color="#12B5EA"/>
<stop offset="1" stop-color="#EF477C"/>
</linearGradient>
<linearGradient id="paint34_linear_1_1645" x1="35.7278" y1="27.1475" x2="27.2972" y2="26.7221" gradientUnits="userSpaceOnUse">
<stop stop-color="#12B5EA"/>
<stop offset="1" stop-color="#EF477C"/>
</linearGradient>
<linearGradient id="paint35_linear_1_1645" x1="35.3916" y1="27.0759" x2="27.5847" y2="27.0953" gradientUnits="userSpaceOnUse">
<stop stop-color="#12B5EA"/>
<stop offset="1" stop-color="#EF477C"/>
</linearGradient>
<linearGradient id="paint36_linear_1_1645" x1="35.4204" y1="26.6227" x2="27.6104" y2="27.0557" gradientUnits="userSpaceOnUse">
<stop stop-color="#12B5EA"/>
<stop offset="1" stop-color="#EF477C"/>
</linearGradient>
<linearGradient id="paint37_linear_1_1645" x1="35.0723" y1="26.6269" x2="27.9299" y2="27.4033" gradientUnits="userSpaceOnUse">
<stop stop-color="#12B5EA"/>
<stop offset="1" stop-color="#EF477C"/>
</linearGradient>
<linearGradient id="paint38_linear_1_1645" x1="34.7355" y1="26.678" x2="28.2757" y2="27.7282" gradientUnits="userSpaceOnUse">
<stop stop-color="#12B5EA"/>
<stop offset="1" stop-color="#EF477C"/>
</linearGradient>
<linearGradient id="paint39_linear_1_1645" x1="34.7056" y1="26.2939" x2="28.297" y2="27.6868" gradientUnits="userSpaceOnUse">
<stop stop-color="#12B5EA"/>
<stop offset="1" stop-color="#EF477C"/>
</linearGradient>
<linearGradient id="paint40_linear_1_1645" x1="34.3803" y1="26.4178" x2="28.6746" y2="27.9777" gradientUnits="userSpaceOnUse">
<stop stop-color="#12B5EA"/>
<stop offset="1" stop-color="#EF477C"/>
</linearGradient>
<linearGradient id="paint41_linear_1_1645" x1="34.3174" y1="26.0759" x2="28.6896" y2="27.9389" gradientUnits="userSpaceOnUse">
<stop stop-color="#12B5EA"/>
<stop offset="1" stop-color="#EF477C"/>
</linearGradient>
<linearGradient id="paint42_linear_1_1645" x1="34.108" y1="25.939" x2="28.8356" y2="28.0485" gradientUnits="userSpaceOnUse">
<stop stop-color="#12B5EA"/>
<stop offset="1" stop-color="#EF477C"/>
</linearGradient>
<linearGradient id="paint43_linear_1_1645" x1="33.6956" y1="25.8545" x2="28.9711" y2="28.3284" gradientUnits="userSpaceOnUse">
<stop stop-color="#12B5EA"/>
<stop offset="1" stop-color="#EF477C"/>
</linearGradient>
<linearGradient id="paint44_linear_1_1645" x1="33.8253" y1="25.6802" x2="29.1126" y2="28.121" gradientUnits="userSpaceOnUse">
<stop stop-color="#12B5EA"/>
<stop offset="1" stop-color="#EF477C"/>
</linearGradient>
<linearGradient id="paint45_linear_1_1645" x1="33.5673" y1="25.9584" x2="29.5514" y2="28.3143" gradientUnits="userSpaceOnUse">
<stop stop-color="#12B5EA"/>
<stop offset="1" stop-color="#EF477C"/>
</linearGradient>
<linearGradient id="paint46_linear_1_1645" x1="33.588" y1="25.9082" x2="29.7449" y2="28.2024" gradientUnits="userSpaceOnUse">
<stop stop-color="#12B5EA"/>
<stop offset="1" stop-color="#EF477C"/>
</linearGradient>
<linearGradient id="paint47_linear_1_1645" x1="33.319" y1="25.4816" x2="29.5517" y2="28.2615" gradientUnits="userSpaceOnUse">
<stop stop-color="#12B5EA"/>
<stop offset="1" stop-color="#EF477C"/>
</linearGradient>
<linearGradient id="paint48_linear_1_1645" x1="33.1257" y1="25.8322" x2="30.0167" y2="28.3887" gradientUnits="userSpaceOnUse">
<stop stop-color="#12B5EA"/>
<stop offset="1" stop-color="#EF477C"/>
</linearGradient>
<linearGradient id="paint49_linear_1_1645" x1="32.9933" y1="25.6378" x2="30.0131" y2="28.3624" gradientUnits="userSpaceOnUse">
<stop stop-color="#12B5EA"/>
<stop offset="1" stop-color="#EF477C"/>
</linearGradient>
<linearGradient id="paint50_linear_1_1645" x1="32.6948" y1="25.4181" x2="29.9462" y2="28.4677" gradientUnits="userSpaceOnUse">
<stop stop-color="#12B5EA"/>
<stop offset="1" stop-color="#EF477C"/>
</linearGradient>
<linearGradient id="paint51_linear_1_1645" x1="32.7374" y1="25.8616" x2="30.4895" y2="28.3965" gradientUnits="userSpaceOnUse">
<stop stop-color="#12B5EA"/>
<stop offset="1" stop-color="#EF477C"/>
</linearGradient>
<linearGradient id="paint52_linear_1_1645" x1="32.604" y1="25.7125" x2="30.4837" y2="28.3713" gradientUnits="userSpaceOnUse">
<stop stop-color="#12B5EA"/>
<stop offset="1" stop-color="#EF477C"/>
</linearGradient>
<linearGradient id="paint53_linear_1_1645" x1="32.3144" y1="25.6075" x2="30.4764" y2="28.4826" gradientUnits="userSpaceOnUse">
<stop stop-color="#12B5EA"/>
<stop offset="1" stop-color="#EF477C"/>
</linearGradient>
<linearGradient id="paint54_linear_1_1645" x1="32.3136" y1="25.4582" x2="30.467" y2="28.3468" gradientUnits="userSpaceOnUse">
<stop stop-color="#12B5EA"/>
<stop offset="1" stop-color="#EF477C"/>
</linearGradient>
<linearGradient id="paint55_linear_1_1645" x1="32.3159" y1="25.9039" x2="30.9548" y2="28.2993" gradientUnits="userSpaceOnUse">
<stop stop-color="#12B5EA"/>
<stop offset="1" stop-color="#EF477C"/>
</linearGradient>
<linearGradient id="paint56_linear_1_1645" x1="32.1853" y1="25.8055" x2="30.9451" y2="28.2799" gradientUnits="userSpaceOnUse">
<stop stop-color="#12B5EA"/>
<stop offset="1" stop-color="#EF477C"/>
</linearGradient>
<linearGradient id="paint57_linear_1_1645" x1="32.0499" y1="25.7186" x2="30.9344" y2="28.2669" gradientUnits="userSpaceOnUse">
<stop stop-color="#12B5EA"/>
<stop offset="1" stop-color="#EF477C"/>
</linearGradient>
<linearGradient id="paint58_linear_1_1645" x1="31.8057" y1="25.6177" x2="30.8845" y2="28.3481" gradientUnits="userSpaceOnUse">
<stop stop-color="#12B5EA"/>
<stop offset="1" stop-color="#EF477C"/>
</linearGradient>
<linearGradient id="paint59_linear_1_1645" x1="31.7728" y1="25.5848" x2="30.9185" y2="28.2637" gradientUnits="userSpaceOnUse">
<stop stop-color="#12B5EA"/>
<stop offset="1" stop-color="#EF477C"/>
</linearGradient>
<linearGradient id="paint60_linear_1_1645" x1="31.8631" y1="25.9626" x2="31.3115" y2="28.1295" gradientUnits="userSpaceOnUse">
<stop stop-color="#12B5EA"/>
<stop offset="1" stop-color="#EF477C"/>
</linearGradient>
<linearGradient id="paint61_linear_1_1645" x1="31.8071" y1="25.9861" x2="31.3727" y2="28.0759" gradientUnits="userSpaceOnUse">
<stop stop-color="#12B5EA"/>
<stop offset="1" stop-color="#EF477C"/>
</linearGradient>
<linearGradient id="paint62_linear_1_1645" x1="31.6896" y1="25.945" x2="31.362" y2="28.0683" gradientUnits="userSpaceOnUse">
<stop stop-color="#12B5EA"/>
<stop offset="1" stop-color="#EF477C"/>
</linearGradient>
<linearGradient id="paint63_linear_1_1645" x1="31.5729" y1="25.915" x2="31.3543" y2="28.0674" gradientUnits="userSpaceOnUse">
<stop stop-color="#12B5EA"/>
<stop offset="1" stop-color="#EF477C"/>
</linearGradient>
<linearGradient id="paint64_linear_1_1645" x1="31.8157" y1="26.1798" x2="31.6394" y2="27.7947" gradientUnits="userSpaceOnUse">
<stop stop-color="#12B5EA"/>
<stop offset="1" stop-color="#EF477C"/>
</linearGradient>
<clipPath id="clip0_1_1645">
<rect width="63" height="54" fill="white"/>
</clipPath>
</defs>
</svg>
